/* XPM */
static const char *sorttime[]={
"70 60 139 2",
"Qt c None",
"#C c #000000",
".e c #020202",
"#H c #050505",
"#D c #0b0b0b",
"#G c #0e0e0e",
".M c #101010",
"#I c #111111",
"#8 c #121212",
"#E c #181818",
".L c #1d1d1d",
"a# c #1e1e1e",
".N c #202020",
"#K c #242424",
".K c #262626",
".O c #272727",
"#M c #282828",
".J c #292929",
".2 c #2e2e2e",
"#W c #2f2f2f",
"#0 c #323232",
"#Q c #343434",
".0 c #373737",
"#F c #383838",
".I c #393939",
"#N c #3b3b3b",
".Z c #3c3c3c",
".A c #3f3f3f",
".P c #414141",
"#T c #434343",
"#Y c #444444",
".X c #484848",
".W c #4a4a4a",
"#w c #4b4b4b",
".S c #4e4e4e",
"#c c #505050",
".H c #515151",
"aa c #525252",
"#s c #535353",
".3 c #545454",
"#P c #555555",
"#J c #565656",
".9 c #575757",
"#V c #585858",
"#Z c #595959",
"#o c #5c5c5c",
"#x c #5e5e5e",
"#L c #5f5f5f",
".t c #636363",
"#A c #666666",
"ad c #676767",
"#5 c #686868",
"#y c #696969",
"#d c #6a6a6a",
".d c #6b6b6b",
"ah c #6c6c6c",
"#h c #6e6e6e",
"ag c #6f6f6f",
"a. c #707070",
"#b c #717171",
"#4 c #737373",
"#r c #747474",
".6 c #767676",
"#3 c #777777",
".i c #787878",
"#v c #797979",
".z c #7a7a7a",
".G c #7c7c7c",
"#B c #7e7e7e",
".j c #7f7f7f",
".n c #808080",
"#p c #818181",
"#t c #838383",
"#. c #858585",
".1 c #878787",
".4 c #888888",
".p c #898989",
".c c #8c8c8c",
"#1 c #8d8d8d",
"#R c #8e8e8e",
".5 c #8f8f8f",
".T c #919191",
"#e c #939393",
"#l c #949494",
".o c #959595",
".Y c #969696",
"#q c #979797",
".R c #989898",
"#n c #999999",
".8 c #9a9a9a",
"#f c #9b9b9b",
"#S c #9d9d9d",
"#U c #9f9f9f",
"#i c #a0a0a0",
".V c #a1a1a1",
"ab c #a2a2a2",
".h c #a3a3a3",
"#O c #a4a4a4",
".u c #a6a6a6",
".B c #a7a7a7",
"#9 c #a9a9a9",
"#g c #aaaaaa",
"#X c #ababab",
"ac c #acacac",
".y c #aeaeae",
".D c #afafaf",
"af c #b1b1b1",
"#m c #b2b2b2",
"ai c #b3b3b3",
".f c #b4b4b4",
"#2 c #b6b6b6",
".7 c #b8b8b8",
".E c #bababa",
"#u c #bbbbbb",
"## c #bcbcbc",
".s c #bdbdbd",
".m c #bebebe",
"#7 c #bfbfbf",
"ae c #c0c0c0",
".C c #c2c2c2",
".a c #c3c3c3",
".k c #c4c4c4",
".F c #c5c5c5",
"#6 c #c6c6c6",
"#j c #c7c7c7",
".Q c #cacaca",
".r c #cccccc",
"#a c #cdcdcd",
".q c #cecece",
".x c #cfcfcf",
".U c #d0d0d0",
".v c #d1d1d1",
".g c #d3d3d3",
"#k c #d4d4d4",
".b c #d5d5d5",
"#z c #d6d6d6",
".l c #d9d9d9",
".w c #dadada",
".# c #dbdbdb",
"QtQtQtQtQtQtQtQtQtQtQtQtQtQtQtQtQtQtQtQtQtQtQtQtQtQtQtQtQtQtQtQtQtQtQtQtQtQtQtQtQtQtQtQtQtQtQtQtQtQtQtQtQtQtQtQtQtQtQtQtQtQtQtQtQtQtQtQtQtQt",
"QtQtQtQtQtQtQtQtQtQtQtQtQtQtQtQtQtQtQtQtQtQtQtQtQtQtQtQtQtQtQtQtQtQtQtQtQtQtQtQtQtQtQtQtQtQtQtQtQtQtQtQtQtQtQtQtQtQtQtQtQtQtQtQtQtQtQtQtQtQt",
"QtQtQtQtQtQtQtQtQtQtQtQtQtQtQtQtQtQtQtQtQtQtQtQtQtQtQtQtQtQtQtQtQtQtQtQtQtQtQtQtQtQtQtQtQtQtQtQtQtQtQtQtQtQtQtQtQtQtQtQtQtQtQtQtQtQtQtQtQtQt",
"QtQtQtQtQtQtQtQtQtQtQtQtQtQtQtQtQtQtQtQtQtQtQtQtQtQtQtQtQtQtQtQtQtQtQtQtQtQtQtQtQtQtQtQtQtQtQtQtQtQtQtQtQtQtQtQtQtQtQtQtQtQtQtQtQtQtQtQtQtQt",
"QtQtQtQtQtQtQtQtQtQtQtQtQtQtQtQtQtQtQtQtQtQtQtQtQtQtQtQtQtQtQtQtQtQtQtQtQtQtQtQtQtQtQtQtQtQtQtQtQtQtQtQtQtQtQtQtQtQtQtQtQtQtQtQtQtQtQtQtQtQt",
"QtQtQtQtQtQtQtQtQtQtQtQtQtQtQtQtQtQtQtQtQtQtQtQtQtQtQtQtQtQtQtQtQtQtQtQtQtQtQtQtQtQtQtQtQtQtQtQtQtQtQtQtQtQtQtQtQtQtQtQtQtQtQtQtQtQtQtQtQtQt",
"QtQtQtQtQtQtQtQtQtQtQtQtQt.#.#.#.#.#.#.#.#.#QtQtQtQtQtQtQtQtQtQtQtQtQtQtQtQtQtQtQtQtQtQtQtQtQtQtQtQtQtQtQtQtQtQtQtQtQtQtQtQtQtQtQtQtQtQtQtQt",
"QtQtQtQtQtQtQtQtQtQtQtQtQt.#.#.#.#.#.#.#.#.#QtQtQtQtQtQtQtQtQtQtQtQtQtQtQtQtQtQtQtQtQtQtQtQtQtQtQtQtQtQtQtQtQtQtQtQtQtQtQtQtQtQtQtQtQtQtQtQt",
"QtQtQtQtQtQtQtQtQtQtQtQtQtQtQtQtQtQtQtQtQtQtQtQtQtQtQtQtQtQtQtQtQtQtQtQtQtQtQtQtQtQtQtQtQtQtQtQtQtQtQtQtQtQtQtQtQtQtQtQtQtQtQtQtQtQtQtQtQtQt",
"QtQtQtQtQtQtQtQtQtQtQtQtQtQtQtQtQtQtQtQtQtQtQtQtQtQtQtQtQtQtQtQtQtQtQtQtQtQtQtQtQtQtQtQtQtQtQtQtQtQtQtQtQtQtQtQt.#.#.#.#.#.#.#.#.#.#.#QtQtQt",
"QtQtQtQtQtQtQtQtQtQtQtQtQtQtQtQtQtQtQtQtQtQtQtQtQtQtQtQtQtQtQtQtQtQtQtQtQtQtQtQtQtQtQtQtQtQtQtQtQtQtQtQtQtQtQtQt.#.#.#.#.#.#.#.#.#.#.#QtQtQt",
"QtQtQtQtQtQtQtQtQtQtQtQtQtQtQtQtQtQtQtQtQtQtQtQtQtQtQtQtQtQtQtQtQtQtQtQtQtQtQtQtQtQtQtQtQtQtQtQtQtQtQtQtQtQtQtQtQtQtQtQtQtQtQtQtQtQtQtQtQtQt",
"QtQtQtQtQtQtQtQtQtQtQtQtQtQtQtQtQtQtQtQtQtQtQtQtQtQtQtQtQtQtQtQtQtQtQtQtQtQtQtQtQtQtQtQtQtQtQtQtQtQtQtQtQtQtQtQtQtQtQtQtQtQtQtQtQtQtQtQtQtQt",
"QtQtQtQtQtQtQtQtQtQtQtQtQtQtQt.#.#QtQtQtQtQtQtQtQtQtQtQtQtQtQtQtQtQtQtQtQtQtQtQtQtQtQtQtQtQtQtQtQtQtQtQtQtQtQtQt.#.#.#.#QtQtQtQtQtQtQtQtQtQt",
"QtQtQtQtQtQtQtQtQtQtQtQtQtQtQt.a.bQtQtQtQtQtQtQtQtQtQtQtQtQtQtQtQtQtQtQtQtQtQtQtQtQtQtQtQtQtQtQtQtQtQtQtQtQtQtQt.c.c.c.cQtQtQtQtQtQtQtQtQtQt",
"QtQtQtQtQtQtQtQtQt.d.e.e.e.e.e.f.gQtQtQtQt.h.i.e.e.e.e.e.e.e.j.kQtQtQt.l.m.e.e.e.e.e.e.e.e.n.fQtQtQt.o.e.e.e.e.e.e.e.e.e.e.e.e.e.e.p.qQtQtQt",
"QtQtQtQtQtQt.r.s.t.e.e.e.e.e.e.u.v.w.l.x.y.z.A.e.e.e.e.e.e.e.e.B.C.g.#.l.D.e.e.e.e.e.e.e.e.e.c.E.r.F.G.H.I.J.J.K.L.e.M.N.O.J.J.J.P.d.QQtQtQt",
"QtQtQtQtQtQt.R.S.e.e.e.TQtQtQtQtQtQt.U.V.W.e.e.X.YQtQt.y.t.Z.e.0.n.f.l.l.D.e.e.1QtQtQtQt.2.e.e.3.YQtQtQtQtQtQtQt.4.e.e.YQtQtQtQtQtQtQtQtQtQt",
"QtQtQtQtQtQt.5.e.e.e.6.7QtQtQtQtQtQt.x.8.e.e.9#.##QtQt#a.R#b#c.e.e.D.l.l.D.e.e.RQtQtQtQt#d.e.e.e#eQtQtQtQtQtQtQt#f.e.e#gQtQtQtQtQtQtQtQtQtQt",
"QtQtQtQtQtQt.5.e#h#i#j#kQtQtQtQtQtQt.x.8.e.e#l.Q.bQtQt.l.q#m.p.e.e.D.l.l.D.e.e.RQtQtQtQt.E.o.e.e#nQtQtQtQtQtQtQt#f.e.e#gQtQtQtQtQtQtQtQtQtQt",
"QtQtQtQtQtQt.5.e.e#o#p##QtQtQtQtQtQt.x.8.e.eQtQtQtQtQtQtQtQt.R.e.e.D.l.l.D.e.e#q.C.#.#.V#r.W.e.e#eQtQtQtQtQtQtQt#f.e.e#gQtQtQtQtQtQtQtQtQtQt",
"QtQtQtQtQtQt.8#s.e.e#c.YQtQtQtQtQtQt.x.8.e.eQtQtQtQtQtQtQtQt.R.e.e.D.l.l.D.e.e#t.u#u#u#v#w.e.e#x#fQtQtQtQtQtQtQt#f.e.e#gQtQtQtQtQtQtQtQtQtQt",
"QtQtQtQtQtQtQtQtQt.e.e#y.c#l#i.k#z.l.x.8.e.eQtQtQtQtQtQtQtQt.R.e.e.D.l.l.D.e.e#A#B.c.c.H.e.e.eQtQtQtQtQtQtQtQtQt#f.e.e#gQtQtQtQtQtQtQtQtQtQt",
"QtQtQtQtQtQtQtQtQt.2#C#C#D#E#F.8.x.l.x.8.e.eQtQtQtQtQtQtQtQt.R.e.e.D.l.l.D.e.e#G#H#C#C#I.e#J.yQtQtQtQtQtQtQtQtQt#f.e.e#gQtQtQtQtQtQtQtQtQtQt",
"QtQtQtQtQtQtQtQtQt.R.d#K.e#E#F.8.x.l.x.8.e.eQtQtQtQtQtQtQtQt.R.e.e.D.l.l.D.e.e#y#b#L#M.e.e#J.yQtQtQtQtQtQtQtQtQt#f.e.e#gQtQtQtQtQtQtQtQtQtQt",
"QtQtQtQtQtQtQtQtQtQt.h.H.e.e#N.8.x.l.x.8.e.eQtQtQtQtQtQtQtQt.R.e.e.D.l.l.D.e.e.T#O.Y#P#Q.e.e#RQtQtQtQtQtQtQtQtQt#f.e.e#gQtQtQtQtQtQtQtQtQtQt",
"QtQtQtQtQtQtQtQtQtQt.F#S.e.e#T.8.x.l.x.8.e.eQtQtQtQtQtQtQtQt.R.e.e.D.l.l.D.e.e.R.7.m#U#V#W.e.e.z#XQtQtQtQtQtQtQt#f.e.e#gQtQtQtQtQtQtQtQtQtQt",
"QtQtQtQtQtQtQtQtQtQt#j.u.e.e#Y.8.x.l.x.8.e.eQtQtQtQtQtQtQtQt.i.e.e.D.l.l.D.e.e.RQtQtQtQt#Z#0.e.e.oQtQtQtQtQtQtQt#f.e.e#gQtQtQtQtQtQtQtQtQtQt",
"QtQtQt.q.1.G#1.QQtQt#2#3.e.e.A.8.x.l.x.8.e.e#Z.1##QtQt#a.8#4.H.e.e.D.l.l.D.e.e.RQtQtQtQtQt#5.e.e.oQtQtQtQtQtQtQt#f.e.e#g.q.#.#.#.#.#.#QtQtQt",
"QtQtQt#6.e.e.e#7QtQt#U.0#8#E#F.8.x.l.x.8#N.e.e.e#9QtQt.ka..P.e.e.6.D.l.l.D.e.e.RQtQtQtQtQt#g.e.e.8QtQtQtQtQtQtQt#f.e.e#g.q.#.#.#.#.#.#QtQtQt",
"QtQtQtQtQtQt.e.e.e#C#C#C#Y#RQtQtQtQtQtQtQt#R#Y#C#C#C#C#C#Ca#.H#6QtQtQt.l.D.e.e.RQtQtQtQtQt#gaa.e.e#N.8.xQtQtQtQt#f.e.e#gQtQtQtQtQtQtQtQtQtQt",
"QtQtQtQtQtQtab.e.e.e.e.e#BacQtQtQtQtQtQtQtac#B#J#J#J#J#J#Jad.1.qQtQtQt.wae#i#3afQtQtQtQtQt.s.4agah#vai#kQtQtQtQtai.T.4.sQtQtQtQtQtQtQtQtQtQt",
"QtQtQtQtQtQtQtQtQtQtQtQtQtQtQtQtQtQtQtQtQtQtQtQtQtQtQtQtQtQtQtQtQtQtQtQtQtQtQtQtQtQtQtQtQtQtQtQtQtQtQtQtQtQtQtQtQtQtQtQtQtQtQtQtQtQtQtQtQtQt",
"QtQtQtQtQtQtQtQtQtQtQtQtQtQtQtQtQtQtQtQtQtQtQtQtQtQtQtQtQtQtQtQtQtQtQtQtQtQtQtQtQtQtQtQtQtQtQtQtQtQtQtQtQtQtQtQtQtQtQtQtQtQtQtQtQtQtQtQtQtQt",
"QtQtQtQtQtQtQtQtQtQtQtQtQtQtQtQtQtQtQtQtQtQtQtQtQtQtQtQtQtQtQtQtQtQtQtQtQtQtQtQtQtQtQtQtQtQtQtQtQtQtQtQtQtQtQtQtQtQtQtQtQtQtQtQtQtQtQtQtQtQt",
"QtQtQtQtQtQtQtQtQtQtQtQtQtQtQtQtQtQtQtQtQtQtQtQtQtQtQtQtQtQtQtQtQtQtQtQtQtQtQtQtQtQtQtQtQtQtQtQtQtQtQtQtQtQtQtQtQtQtQtQtQtQtQtQtQtQtQtQtQtQt",
"QtQtQtQtQtQtQtQtQtQtQtQtQtQtQtQtQtQtQtQtQtQtQtQtQtQtQtQtQtQtQtQtQtQtQtQtQtQtQtQtQtQtQtQtQtQtQtQtQtQtQtQtQtQtQtQtQtQtQtQtQtQtQtQtQtQtQtQtQtQt",
"QtQtQtQtQtQtQtQtQtQtQtQtQtQtQtQtQtQtQtQtQtQtQtQtQtQtQtQtQtQtQtQtQtQtQtQtQtQtQtQtQtQtQtQtQtQtQtQtQtQtQtQtQtQtQtQtQtQtQtQtQtQtQtQtQtQtQtQtQtQt",
"QtQtQtQtQtQtQtQtQtQtQtQtQtQtQtQtQtQtQtQtQtQtQtQtQtQtQtQtQtQtQtQtQtQtQtQtQtQtQtQtQtQtQtQtQtQtQtQtQtQtQtQtQtQtQtQtQtQtQtQtQtQtQtQtQtQtQtQtQtQt",
"QtQtQtQtQtQtQtQtQtQtQtQtQtQtQtQtQtQtQtQtQtQtQtQtQtQtQtQtQtQtQtQtQtQtQtQtQtQtQtQtQtQtQtQtQtQtQtQtQtQtQtQtQtQtQtQtQtQtQtQtQtQtQtQtQtQtQtQtQtQt",
"QtQtQtQtQtQtQtQtQtQtQtQtQtQtQtQtQtQtQtQtQtQtQtQtQtQtQtQtQtQtQtQtQtQtQtQtQtQtQtQtQtQtQtQtQtQtQtQtQtQtQtQtQtQtQtQtQtQtQtQtQtQtQtQtQtQtQtQtQtQt",
"QtQtQtQtQtQtQtQtQtQtQtQtQtQtQtQtQtQtQtQtQtQtQtQtQtQtQtQtQtQtQtQtQtQtQtQtQtQtQtQtQtQtQtQtQtQtQtQtQtQtQtQtQtQtQtQtQtQtQtQtQtQtQtQtQtQtQtQtQtQt",
"QtQtQtQtQtQtQtQtQtQtQtQtQtQtQtQtQtQtQtQtQtQtQtQtQtQtQtQtQtQtQtQtQtQtQtQtQtQtQtQtQtQtQtQtQtQtQtQtQtQtQtQtQtQtQtQtQtQtQtQtQtQtQtQtQtQtQtQtQtQt",
"QtQtQtQtQtQtQtQtQtQtQtQtQtQtQtQtQtQtQtQtQtQtQtQtQtQtQtQtQtQtQtQtQtQtQtQtQtQtQtQtQtQtQtQtQtQtQtQtQtQtQtQtQtQtQtQtQtQtQtQtQtQtQtQtQtQtQtQtQtQt",
"QtQtQtQtQtQtQtQtQtQtQtQtQtQtQtQtQtQtQtQtQtQtQtQtQtQtQtQtQtQtQtQtQtQtQtQtQtQtQtQtQtQtQtQtQtQtQtQtQtQtQtQtQtQtQtQtQtQtQtQtQtQtQtQtQtQtQtQtQtQt",
"QtQtQtQtQtQtQtQtQtQtQtQtQtQtQtQtQtQtQtQtQtQtQtQtQtQtQtQtQtQtQtQtQtQtQtQtQtQtQtQtQtQtQtQtQtQtQtQtQtQtQtQtQtQtQtQtQtQtQtQtQtQtQtQtQtQtQtQtQtQt",
"QtQtQtQtQtQtQtQtQtQtQtQtQtQtQtQtQtQtQtQtQtQtQtQtQtQtQtQtQtQtQtQtQtQtQtQtQtQtQtQtQtQtQtQtQtQtQtQtQtQtQtQtQtQtQtQtQtQtQtQtQtQtQtQtQtQtQtQtQtQt",
"QtQtQtQtQtQtQtQtQtQtQtQtQtQtQtQtQtQtQtQtQtQtQtQtQtQtQtQtQtQtQtQtQtQtQtQtQtQtQtQtQtQtQtQtQtQtQtQtQtQtQtQtQtQtQtQtQtQtQtQtQtQtQtQtQtQtQtQtQtQt",
"QtQtQtQtQtQtQtQtQtQtQtQtQtQtQtQtQtQtQtQtQtQtQtQtQtQtQtQtQtQtQtQtQtQtQtQtQtQtQtQtQtQtQtQtQtQtQtQtQtQtQtQtQtQtQtQtQtQtQtQtQtQtQtQtQtQtQtQtQtQt",
"QtQtQtQtQtQtQtQtQtQtQtQtQtQtQtQtQtQtQtQtQtQtQtQtQtQtQtQtQtQtQtQtQtQtQtQtQtQtQtQtQtQtQtQtQtQtQtQtQtQtQtQtQtQtQtQtQtQtQtQtQtQtQtQtQtQtQtQtQtQt",
"QtQtQtQtQtQtQtQtQtQtQtQtQtQtQtQtQtQtQtQtQtQtQtQtQtQtQtQtQtQtQtQtQtQtQtQtQtQtQtQtQtQtQtQtQtQtQtQtQtQtQtQtQtQtQtQtQtQtQtQtQtQtQtQtQtQtQtQtQtQt",
"QtQtQtQtQtQtQtQtQtQtQtQtQtQtQtQtQtQtQtQtQtQtQtQtQtQtQtQtQtQtQtQtQtQtQtQtQtQtQtQtQtQtQtQtQtQtQtQtQtQtQtQtQtQtQtQtQtQtQtQtQtQtQtQtQtQtQtQtQtQt",
"QtQtQtQtQtQtQtQtQtQtQtQtQtQtQtQtQtQtQtQtQtQtQtQtQtQtQtQtQtQtQtQtQtQtQtQtQtQtQtQtQtQtQtQtQtQtQtQtQtQtQtQtQtQtQtQtQtQtQtQtQtQtQtQtQtQtQtQtQtQt",
"QtQtQtQtQtQtQtQtQtQtQtQtQtQtQtQtQtQtQtQtQtQtQtQtQtQtQtQtQtQtQtQtQtQtQtQtQtQtQtQtQtQtQtQtQtQtQtQtQtQtQtQtQtQtQtQtQtQtQtQtQtQtQtQtQtQtQtQtQtQt",
"QtQtQtQtQtQtQtQtQtQtQtQtQtQtQtQtQtQtQtQtQtQtQtQtQtQtQtQtQtQtQtQtQtQtQtQtQtQtQtQtQtQtQtQtQtQtQtQtQtQtQtQtQtQtQtQtQtQtQtQtQtQtQtQtQtQtQtQtQtQt",
"QtQtQtQtQtQtQtQtQtQtQtQtQtQtQtQtQtQtQtQtQtQtQtQtQtQtQtQtQtQtQtQtQtQtQtQtQtQtQtQtQtQtQtQtQtQtQtQtQtQtQtQtQtQtQtQtQtQtQtQtQtQtQtQtQtQtQtQtQtQt",
"QtQtQtQtQtQtQtQtQtQtQtQtQtQtQtQtQtQtQtQtQtQtQtQtQtQtQtQtQtQtQtQtQtQtQtQtQtQtQtQtQtQtQtQtQtQtQtQtQtQtQtQtQtQtQtQtQtQtQtQtQtQtQtQtQtQtQtQtQtQt",
"QtQtQtQtQtQtQtQtQtQtQtQtQtQtQtQtQtQtQtQtQtQtQtQtQtQtQtQtQtQtQtQtQtQtQtQtQtQtQtQtQtQtQtQtQtQtQtQtQtQtQtQtQtQtQtQtQtQtQtQtQtQtQtQtQtQtQtQtQtQt",
"QtQtQtQtQtQtQtQtQtQtQtQtQtQtQtQtQtQtQtQtQtQtQtQtQtQtQtQtQtQtQtQtQtQtQtQtQtQtQtQtQtQtQtQtQtQtQtQtQtQtQtQtQtQtQtQtQtQtQtQtQtQtQtQtQtQtQtQtQtQt",
"QtQtQtQtQtQtQtQtQtQtQtQtQtQtQtQtQtQtQtQtQtQtQtQtQtQtQtQtQtQtQtQtQtQtQtQtQtQtQtQtQtQtQtQtQtQtQtQtQtQtQtQtQtQtQtQtQtQtQtQtQtQtQtQtQtQtQtQtQtQt"};
