<?xml version="1.0" encoding="UTF-8" standalone="no"?>
<!-- Created with Inkscape (http://www.inkscape.org/) -->

<svg
   xmlns:dc="http://purl.org/dc/elements/1.1/"
   xmlns:cc="http://creativecommons.org/ns#"
   xmlns:rdf="http://www.w3.org/1999/02/22-rdf-syntax-ns#"
   xmlns:svg="http://www.w3.org/2000/svg"
   xmlns="http://www.w3.org/2000/svg"
   xmlns:sodipodi="http://sodipodi.sourceforge.net/DTD/sodipodi-0.dtd"
   xmlns:inkscape="http://www.inkscape.org/namespaces/inkscape"
   width="330.72333"
   height="180.41182"
   id="svg2"
   version="1.1"
   inkscape:version="0.48.3.1 r9886"
   sodipodi:docname="hqc_splash.svg">
  <defs
     id="defs4" />
  <sodipodi:namedview
     id="base"
     pagecolor="#ffffff"
     bordercolor="#666666"
     borderopacity="1.0"
     inkscape:pageopacity="0.0"
     inkscape:pageshadow="2"
     inkscape:zoom="1.979899"
     inkscape:cx="121.69009"
     inkscape:cy="119.69357"
     inkscape:document-units="px"
     inkscape:current-layer="layer1"
     showgrid="false"
     inkscape:object-paths="false"
     inkscape:snap-bbox="false"
     inkscape:snap-global="true"
     fit-margin-top="0"
     fit-margin-left="0"
     fit-margin-right="0"
     fit-margin-bottom="0"
     inkscape:window-width="1436"
     inkscape:window-height="926"
     inkscape:window-x="243"
     inkscape:window-y="101"
     inkscape:window-maximized="0" />
  <metadata
     id="metadata7">
    <rdf:RDF>
      <cc:Work
         rdf:about="">
        <dc:format>image/svg+xml</dc:format>
        <dc:type
           rdf:resource="http://purl.org/dc/dcmitype/StillImage" />
        <dc:title />
      </cc:Work>
    </rdf:RDF>
  </metadata>
  <g
     inkscape:label="Layer 1"
     inkscape:groupmode="layer"
     id="layer1"
     transform="translate(43.934468,-23.720733)">
    <rect
       style="color:#000000;fill:#f0f0f0;fill-opacity:1;stroke:#000000;stroke-width:1.02170765;stroke-linecap:butt;stroke-linejoin:miter;stroke-miterlimit:4;stroke-opacity:1;stroke-dasharray:none;stroke-dashoffset:0;marker:none;visibility:visible;display:inline;overflow:visible;enable-background:accumulate"
       id="rect3016"
       width="329.70163"
       height="179.39011"
       x="-43.423615"
       y="24.231586"
       rx="8"
       ry="8" />
    <g
       transform="translate(-119.80927,-676.30564)"
       id="selection">
      <g
         id="dp_group001">
        <path
           d="m 100.8,796.776 c 75.864,5.131 132,4.757 199.2,0 24.619,-1.743 11.944,-37.017 -14.4,-23.785 42.303,-59.296 -101.229,-95.659 -108,-20.388 -9.137,-41.052 -82.3293,-14.447 -58.4,12.912 -25.528,-17.016 -49.6333,29.149 -18.4,31.261 z"
           id="dp_path002"
           inkscape:connector-curvature="0"
           style="fill:#5cbcfc;fill-rule:evenodd" />
        <path
           d="m 114.325,792.968 c 63.167,4.092 109.907,3.793 165.859,0 20.499,-1.389 9.945,-29.519 -11.989,-18.967 35.221,-47.282 -84.287,-76.278 -89.924,-16.257 -7.608,-32.735 -68.55,-11.52 -48.626,10.296 -21.254,-13.569 -41.325,23.244 -15.32,24.928 z"
           id="dp_path003"
           inkscape:connector-curvature="0"
           style="fill:#badaff;fill-rule:evenodd" />
        <g
           id="dp_group004">
          <path
             d="m 222.139,731.309 c 3.793,-2.277 9.234,-1.706 12.15,1.276 2.918,2.983 2.206,7.247 -1.589,9.524 -3.793,2.278 -9.235,1.707 -12.151,-1.276 -2.917,-2.982 -2.205,-7.246 1.59,-9.524 z"
             id="dp_path005"
             inkscape:connector-curvature="0"
             style="fill:#ffffff;fill-rule:evenodd;stroke:none" />
          <path
             d="m 195.331,736.707 c 4.552,-2.732 11.078,-2.047 14.578,1.532 3.5,3.577 2.646,8.693 -1.906,11.425 -4.552,2.733 -11.079,2.048 -14.579,-1.531 -3.5,-3.578 -2.645,-8.694 1.907,-11.426 z"
             id="dp_path006"
             inkscape:connector-curvature="0"
             style="fill:#ffffff;fill-rule:evenodd;stroke:none" />
          <path
             d="m 243.229,737.201 c 3.036,-1.821 7.388,-1.364 9.72,1.022 2.332,2.384 1.764,5.796 -1.27,7.617 -3.036,1.821 -7.388,1.364 -9.72,-1.021 -2.332,-2.384 -1.764,-5.796 1.27,-7.618 z"
             id="dp_path007"
             inkscape:connector-curvature="0"
             style="fill:#ffffff;fill-rule:evenodd;stroke:none" />
          <path
             d="m 256.3,747.715 c 2.277,-1.367 5.541,-1.023 7.292,0.766 1.749,1.79 1.324,4.348 -0.953,5.715 -2.278,1.367 -5.542,1.023 -7.292,-0.765 -1.75,-1.79 -1.324,-4.348 0.953,-5.716 z"
             id="dp_path008"
             inkscape:connector-curvature="0"
             style="fill:#ffffff;fill-rule:evenodd;stroke:none" />
          <path
             d="m 261.768,756.443 c 1.519,-0.911 3.695,-0.683 4.861,0.512 1.168,1.193 0.883,2.898 -0.634,3.809 -1.519,0.912 -3.695,0.683 -4.862,-0.511 -1.168,-1.193 -0.882,-2.898 0.635,-3.81 z"
             id="dp_path009"
             inkscape:connector-curvature="0"
             style="fill:#ffffff;fill-rule:evenodd;stroke:none" />
        </g>
      </g>
      <g
         id="dp_group010">
        <path
           d="m 132.443,830.919 c 0,-15.686 12.714,-28.4 28.4,-28.4 l 62.4,0 c 15.685,0 28.4,12.714 28.4,28.4 0,15.685 -12.715,28.4 -28.4,28.4 l -62.4,0 c -15.686,0 -28.4,-12.715 -28.4,-28.4 z"
           id="dp_path011"
           inkscape:connector-curvature="0"
           style="fill:#dbdbdb;fill-opacity:0.50196078;fill-rule:evenodd" />
        <g
           id="dp_group012">
          <path
             d="m 247.543,797.719 -35.999,60.8"
             id="dp_path013"
             inkscape:connector-curvature="0"
             style="fill:none;stroke:#a7a7a7;stroke-width:3.33332992" />
          <path
             d="m 232.544,797.719 -36,60.8"
             id="dp_path014"
             inkscape:connector-curvature="0"
             style="fill:none;stroke:#a7a7a7;stroke-width:3.33332992" />
          <path
             d="m 217.544,797.719 -36,60.8"
             id="dp_path015"
             inkscape:connector-curvature="0"
             style="fill:none;stroke:#a7a7a7;stroke-width:3.33332992" />
          <path
             d="m 202.544,797.719 -36,60.8"
             id="dp_path016"
             inkscape:connector-curvature="0"
             style="fill:none;stroke:#a7a7a7;stroke-width:3.33332992" />
          <path
             d="m 187.544,797.719 -36,60.8"
             id="dp_path017"
             inkscape:connector-curvature="0"
             style="fill:none;stroke:#a7a7a7;stroke-width:3.33332992" />
          <path
             d="m 172.544,797.719 -36,60.8"
             id="dp_path018"
             inkscape:connector-curvature="0"
             style="fill:none;stroke:#a7a7a7;stroke-width:3.33332992" />
        </g>
      </g>
    </g>
    <path
       style="fill:#ffffff;fill-opacity:1;stroke:#404040;stroke-width:1px;stroke-linecap:butt;stroke-linejoin:miter;stroke-opacity:1"
       d="m 125.71429,90.93361 92.85714,-44.642858 56.78571,22.142858 0,48.21429 -83.57143,68.92857 -66.78571,-37.5 z"
       id="path3894"
       inkscape:connector-curvature="0" />
    <path
       style="fill:#ffffff;fill-opacity:1;stroke:#404040;stroke-width:1;stroke-linecap:round;stroke-miterlimit:4;stroke-opacity:1;stroke-dasharray:none"
       d="M 187.35686,177.19345 167.1434,191.785 c -4.89309,1.2309 -10.92445,1.46515 -15.81755,-0.20552 l -42.50734,-22.36817 c -5.97619,-1.97372 -5.85645,-5.09792 -6.53488,-10.00042 l -0.33361,-35.96506 c 1.77439,-6.55359 6.82134,-9.86654 12.01034,-12.1728 l 16.3474,-8.29964 56.38186,31.81528 0.66724,42.60478 z"
       id="path9257"
       sodipodi:nodetypes="cccccccccc"
       inkscape:connector-curvature="0" />
    <path
       inkscape:connector-curvature="0"
       id="path3961"
       d="m 148.36222,80.114717 64.85207,34.747463 1.07142,52.14286 42.26913,-34.7908 0.0396,-49.577859 -56.76033,-27.395395 z"
       style="fill:#ff0000;fill-opacity:1;stroke:#404040;stroke-width:1px;stroke-linecap:butt;stroke-linejoin:miter;stroke-opacity:1"
       sodipodi:nodetypes="ccccccc" />
    <path
       style="fill:none;stroke:#404040;stroke-width:1px;stroke-linecap:butt;stroke-linejoin:miter;stroke-opacity:1"
       d="m 125.71429,90.93361 67.85714,38.92857 -1.70278,55.58802"
       id="path3896"
       inkscape:connector-curvature="0"
       sodipodi:nodetypes="ccc" />
    <path
       style="fill:none;stroke:#404040;stroke-width:1px;stroke-linecap:butt;stroke-linejoin:miter;stroke-opacity:1"
       d="m 193.63271,129.65298 81.5765,-61.071437"
       id="path3898"
       inkscape:connector-curvature="0"
       sodipodi:nodetypes="cc" />
    <path
       style="fill:none;stroke:#f0f0f0;stroke-width:1px;stroke-linecap:butt;stroke-linejoin:miter;stroke-opacity:1"
       d="m 105.81348,120.62273 52.6542,25.75889 -0.88388,41.41625"
       id="path3991"
       inkscape:connector-curvature="0" />
    <path
       style="fill:none;stroke:#f0f0f0;stroke-width:1px;stroke-linecap:butt;stroke-linejoin:miter;stroke-opacity:1"
       d="m 158.46768,146.50789 24.24366,-11.36422"
       id="path3993"
       inkscape:connector-curvature="0" />
    <text
       xml:space="preserve"
       style="font-size:25.26865196px;font-style:normal;font-weight:normal;line-height:125%;letter-spacing:0px;word-spacing:0px;fill:#000000;fill-opacity:1;stroke:none;font-family:Sans"
       x="205.50748"
       y="324.70667"
       id="text3012"
       sodipodi:linespacing="125%"
       transform="matrix(1,-0.80508532,0,1,0,0)"
       inkscape:transform-center-y="4.0610282"><tspan
         sodipodi:role="line"
         id="tspan3014"
         x="205.50748"
         y="324.70667"
         style="font-weight:bold">HQC</tspan></text>
  </g>
</svg>
