<svg height="24" width="24">
  <!--rect x="1" y="1" width="22" height="22" fill="white" stroke="none"/-->

  <!-- thermometer -->
  <path d="M10 10
           A 2 2, 0, 0, 1, 14 10
           L 14 16
           A 3 3, 0, 1, 1, 14 16
           z" stroke="none" fill="white"/>
  <path d="M10 13
           L 14 13
           L 14 16
           A 3 3, 0, 1, 1, 10 16
           z" stroke="black" stroke-width="1" fill="red"/>
  <path d="M10 10
           A 2 2, 0, 0, 1, 14 10
           L 14 16
           A 3 3, 0, 1, 1, 10 16
           z" stroke="black" stroke-width="1" fill="none"/>

  <!-- wind arrow -->
  <line x1="4" y1="6" x2="18" y2="6" style="stroke:black;stroke-width:1" />
  <line x1="4" y1="6" x2="7" y2="9" style="stroke:black;stroke-width:1" />
  <line x1="4" y1="6" x2="7" y2="3" style="stroke:black;stroke-width:1" />
  <line x1="18" y1="6" x2="21" y2="10" style="stroke:black;stroke-width:1" />
  <line x1="15" y1="6" x2="18" y2="10" style="stroke:black;stroke-width:1" />

</svg>