/* XPM */
static const char * icon_accept[] = {
"24 24 3 1",
" 	c None",
".	c #3399FF",
"+	c #297ACC",
"                        ",
"                        ",
"                        ",
"                        ",
"                ..      ",
"               ..++     ",
"              ..++      ",
"              ..+       ",
"             ..++       ",
"            ..++        ",
"            ..+         ",
"           ..++         ",
"           ..+          ",
"      ..  ..++          ",
"     ...+...+           ",
"      .....++           ",
"      .....+            ",
"       ...++            ",
"       ..++             ",
"        .+              ",
"         +              ",
"                        ",
"                        ",
"                        "};
