/* XPM */
static const char *icon_redo[] = {
/* columns rows colors chars-per-pixel */
"24 24 3 1 ",
"  c #29297A7ACCCC",
". c #33339999FFFF",
"X c None",
/* pixels */
"XXXXXXXXXXXXXXXXXXXXXXXX",
"XXXXXXXXXXXXXXXXXXXXXXXX",
"XXXXXXXXXXXXXXXXXXXXXXXX",
"XXXXXXXXXXXXXXXXXXXXXXXX",
"XXXXXXXXXXXXXX.XXXXXXXXX",
"XXXXXXXXXXXXX ..XXXXXXXX",
"XXXXXXXXXXXXX ...XXXXXXX",
"XXXXXXXXXXXXX ....XXXXXX",
"XXXXXX.............XXXXX",
"XXXXX...............XXXX",
"XXXX.................XXX",
"XXX..................XXX",
"XX .................XXXX",
"XX ................XXXXX",
"XX ......     ....XXXXXX",
"XX .....XXXXX ...XXXXXXX",
"XX  .....XXXX ..XXXXXXXX",
"XXX  ....XXXX .XXXXXXXXX",
"XXXX  ....XXX XXXXXXXXXX",
"XXXXX  ....XXXXXXXXXXXXX",
"XXXXXX  ...XXXXXXXXXXXXX",
"XXXXXXX   XXXXXXXXXXXXXX",
"XXXXXXXXXXXXXXXXXXXXXXXX",
"XXXXXXXXXXXXXXXXXXXXXXXX"
};
