/* XPM */
static const char * icon_reject[] = {
"24 24 3 1",
" 	c None",
".	c #3399FF",
"+	c #297ACC",
"                        ",
"                        ",
"                        ",
"                        ",
"      .          .      ",
"     ...        ...     ",
"    .....      .....    ",
"     .....    .....++   ",
"      .....  .....++    ",
"       ..........++     ",
"        ........++      ",
"         ......++       ",
"         ......+        ",
"        ........        ",
"       ..........       ",
"      .....++.....      ",
"     .....++  .....     ",
"    .....++    .....    ",
"     ...++      ...++   ",
"      .++        .++    ",
"       +          +     ",
"                        ",
"                        ",
"                        "};
